<mxfile host="Electron" modified="2024-03-13T09:17:22.779Z" agent="Mozilla/5.0 (X11; Linux x86_64) AppleWebKit/537.36 (KHTML, like Gecko) draw.io/24.0.4 Chrome/120.0.6099.109 Electron/28.1.0 Safari/537.36" etag="UBe6oanCPTAysQ534W6C" version="24.0.4" type="device">
  <diagram name="第 1 页" id="34UhgVEW0im66hXtFUMA">
    <mxGraphModel dx="691" dy="397" grid="1" gridSize="10" guides="1" tooltips="1" connect="1" arrows="1" fold="1" page="1" pageScale="1" pageWidth="827" pageHeight="1169" math="1" shadow="0">
      <root>
        <mxCell id="0" />
        <mxCell id="1" parent="0" />
        <mxCell id="EegVc3VYWXwjP0MWEAOp-22" value="" style="rounded=0;whiteSpace=wrap;html=1;fillColor=none;fontColor=#333333;strokeColor=#CCCCCC;dashed=1;fontFamily=宋体;fontSize=10.5;" parent="1" vertex="1">
          <mxGeometry x="86.25" y="80" width="155" height="90" as="geometry" />
        </mxCell>
        <mxCell id="EegVc3VYWXwjP0MWEAOp-1" value="下一层" style="rounded=0;whiteSpace=wrap;html=1;verticalAlign=middle;fontFamily=宋体;rotation=90;horizontal=0;fontSize=10.5;" parent="1" vertex="1">
          <mxGeometry x="162" y="115" width="85" height="20" as="geometry" />
        </mxCell>
        <mxCell id="EegVc3VYWXwjP0MWEAOp-2" value="卷积层" style="rounded=0;whiteSpace=wrap;html=1;verticalAlign=middle;fontFamily=宋体;rotation=90;horizontal=0;fontSize=10.5;" parent="1" vertex="1">
          <mxGeometry x="121.25" y="115" width="85" height="20" as="geometry" />
        </mxCell>
        <mxCell id="EegVc3VYWXwjP0MWEAOp-3" value="上一层" style="rounded=0;whiteSpace=wrap;html=1;verticalAlign=middle;fontFamily=宋体;rotation=90;horizontal=0;fontSize=10.5;" parent="1" vertex="1">
          <mxGeometry x="77" y="115" width="85" height="20" as="geometry" />
        </mxCell>
        <mxCell id="EegVc3VYWXwjP0MWEAOp-4" value="" style="endArrow=classicThin;html=1;rounded=0;fontFamily=宋体;endFill=1;fontSize=10.5;" parent="1" edge="1">
          <mxGeometry width="50" height="50" relative="1" as="geometry">
            <mxPoint x="90" y="125" as="sourcePoint" />
            <mxPoint x="110" y="124.86" as="targetPoint" />
          </mxGeometry>
        </mxCell>
        <mxCell id="EegVc3VYWXwjP0MWEAOp-5" value="" style="endArrow=classicThin;html=1;rounded=0;fontFamily=宋体;entryX=0.5;entryY=1;entryDx=0;entryDy=0;exitX=0.5;exitY=0;exitDx=0;exitDy=0;endFill=1;fontSize=10.5;" parent="1" source="EegVc3VYWXwjP0MWEAOp-3" target="EegVc3VYWXwjP0MWEAOp-2" edge="1">
          <mxGeometry width="50" height="50" relative="1" as="geometry">
            <mxPoint x="60" y="135" as="sourcePoint" />
            <mxPoint x="90" y="135" as="targetPoint" />
          </mxGeometry>
        </mxCell>
        <mxCell id="EegVc3VYWXwjP0MWEAOp-6" value="" style="endArrow=classicThin;html=1;rounded=0;fontFamily=宋体;entryX=0.5;entryY=1;entryDx=0;entryDy=0;exitX=0.5;exitY=0;exitDx=0;exitDy=0;endFill=1;fontSize=10.5;" parent="1" source="EegVc3VYWXwjP0MWEAOp-2" target="EegVc3VYWXwjP0MWEAOp-1" edge="1">
          <mxGeometry width="50" height="50" relative="1" as="geometry">
            <mxPoint x="120" y="135" as="sourcePoint" />
            <mxPoint x="160" y="135" as="targetPoint" />
          </mxGeometry>
        </mxCell>
        <mxCell id="EegVc3VYWXwjP0MWEAOp-7" value="" style="endArrow=classicThin;html=1;rounded=0;fontFamily=宋体;endFill=1;fontSize=10.5;" parent="1" edge="1">
          <mxGeometry width="50" height="50" relative="1" as="geometry">
            <mxPoint x="214.5" y="124.89999999999999" as="sourcePoint" />
            <mxPoint x="235" y="125.02" as="targetPoint" />
          </mxGeometry>
        </mxCell>
        <mxCell id="EegVc3VYWXwjP0MWEAOp-10" value="" style="curved=1;endArrow=classic;html=1;rounded=0;entryX=1;entryY=0.5;entryDx=0;entryDy=0;fontFamily=宋体;fontSize=10.5;" parent="1" target="EegVc3VYWXwjP0MWEAOp-18" edge="1">
          <mxGeometry width="50" height="50" relative="1" as="geometry">
            <mxPoint x="284" y="130" as="sourcePoint" />
            <mxPoint x="504" y="235" as="targetPoint" />
            <Array as="points">
              <mxPoint x="284" y="185" />
              <mxPoint x="394" y="185" />
              <mxPoint x="504" y="185" />
            </Array>
          </mxGeometry>
        </mxCell>
        <mxCell id="EegVc3VYWXwjP0MWEAOp-11" value="`1\times1`卷积层" style="rounded=0;whiteSpace=wrap;html=1;verticalAlign=middle;fontFamily=宋体;rotation=90;horizontal=0;fontSize=10.5;" parent="1" vertex="1">
          <mxGeometry x="419" y="110" width="85" height="40" as="geometry" />
        </mxCell>
        <mxCell id="EegVc3VYWXwjP0MWEAOp-12" value="`3\times3`卷积层" style="rounded=0;whiteSpace=wrap;html=1;verticalAlign=middle;fontFamily=宋体;rotation=90;horizontal=0;fontSize=10.5;" parent="1" vertex="1">
          <mxGeometry x="350.25" y="110" width="85" height="40" as="geometry" />
        </mxCell>
        <mxCell id="EegVc3VYWXwjP0MWEAOp-13" value="`1\times1`卷积层" style="rounded=0;whiteSpace=wrap;html=1;verticalAlign=middle;fontFamily=宋体;rotation=90;horizontal=0;fontSize=10.5;" parent="1" vertex="1">
          <mxGeometry x="281.5" y="110" width="85" height="40" as="geometry" />
        </mxCell>
        <mxCell id="EegVc3VYWXwjP0MWEAOp-14" value="" style="endArrow=classicThin;html=1;rounded=0;fontFamily=宋体;endFill=1;fontSize=10.5;" parent="1" edge="1">
          <mxGeometry width="50" height="50" relative="1" as="geometry">
            <mxPoint x="274" y="130" as="sourcePoint" />
            <mxPoint x="304" y="130" as="targetPoint" />
          </mxGeometry>
        </mxCell>
        <mxCell id="EegVc3VYWXwjP0MWEAOp-15" value="" style="endArrow=classicThin;html=1;rounded=0;fontFamily=宋体;entryX=0.5;entryY=1;entryDx=0;entryDy=0;exitX=0.5;exitY=0;exitDx=0;exitDy=0;endFill=1;fontSize=10.5;" parent="1" source="EegVc3VYWXwjP0MWEAOp-13" target="EegVc3VYWXwjP0MWEAOp-12" edge="1">
          <mxGeometry width="50" height="50" relative="1" as="geometry">
            <mxPoint x="264" y="140" as="sourcePoint" />
            <mxPoint x="294" y="140" as="targetPoint" />
          </mxGeometry>
        </mxCell>
        <mxCell id="EegVc3VYWXwjP0MWEAOp-16" value="" style="endArrow=classicThin;html=1;rounded=0;fontFamily=宋体;entryX=0.5;entryY=1;entryDx=0;entryDy=0;exitX=0.5;exitY=0;exitDx=0;exitDy=0;endFill=1;fontSize=10.5;" parent="1" source="EegVc3VYWXwjP0MWEAOp-12" target="EegVc3VYWXwjP0MWEAOp-11" edge="1">
          <mxGeometry width="50" height="50" relative="1" as="geometry">
            <mxPoint x="324" y="140" as="sourcePoint" />
            <mxPoint x="364" y="140" as="targetPoint" />
          </mxGeometry>
        </mxCell>
        <mxCell id="EegVc3VYWXwjP0MWEAOp-17" value="" style="endArrow=classicThin;html=1;rounded=0;fontFamily=宋体;endFill=1;exitX=0.5;exitY=0;exitDx=0;exitDy=0;fontSize=10.5;" parent="1" source="EegVc3VYWXwjP0MWEAOp-11" edge="1">
          <mxGeometry width="50" height="50" relative="1" as="geometry">
            <mxPoint x="481" y="130" as="sourcePoint" />
            <mxPoint x="501" y="130" as="targetPoint" />
          </mxGeometry>
        </mxCell>
        <mxCell id="EegVc3VYWXwjP0MWEAOp-18" value="" style="shape=orEllipse;perimeter=ellipsePerimeter;whiteSpace=wrap;html=1;backgroundOutline=1;rotation=90;fontFamily=宋体;fontSize=10.5;" parent="1" vertex="1">
          <mxGeometry x="501" y="120" width="20" height="20" as="geometry" />
        </mxCell>
        <mxCell id="EegVc3VYWXwjP0MWEAOp-19" value="" style="endArrow=classicThin;html=1;rounded=0;fontFamily=宋体;endFill=1;fontSize=10.5;" parent="1" edge="1">
          <mxGeometry width="50" height="50" relative="1" as="geometry">
            <mxPoint x="521" y="130" as="sourcePoint" />
            <mxPoint x="531" y="130" as="targetPoint" />
          </mxGeometry>
        </mxCell>
        <mxCell id="EegVc3VYWXwjP0MWEAOp-23" value="" style="rounded=0;whiteSpace=wrap;html=1;fillColor=none;fontColor=#333333;strokeColor=#CCCCCC;dashed=1;fontFamily=宋体;fontSize=10.5;" parent="1" vertex="1">
          <mxGeometry x="270" y="80" width="265" height="110" as="geometry" />
        </mxCell>
      </root>
    </mxGraphModel>
  </diagram>
</mxfile>
